<?xml version="1.0" encoding="utf-8"?>
<!-- Generator: Adobe Illustrator 26.1.0, SVG Export Plug-In . SVG Version: 6.00 Build 0)  -->
<svg version="1.1" id="Layer_1" xmlns="http://www.w3.org/2000/svg" xmlns:xlink="http://www.w3.org/1999/xlink" x="0px" y="0px"
	 viewBox="0 0 1080 934" style="enable-background:new 0 0 1080 934;" xml:space="preserve">
<style type="text/css">
	.st0{fill:#3F4145;}
	.st1{fill:#3F4145;stroke:#FFFFFF;stroke-width:5;stroke-miterlimit:10;}
	.st2{opacity:0;fill:none;stroke:#FFFFFF;stroke-width:5;stroke-miterlimit:10;}
	.st3{fill:#00A1D9;stroke:#FFFFFF;stroke-width:5;stroke-miterlimit:10;}
	.st4{opacity:0;}
	.st5{fill:none;stroke:#FFFFFF;stroke-width:5;stroke-miterlimit:10;}
	.st6{fill:#3F4145;stroke:#3F4145;stroke-width:5;stroke-miterlimit:10;}
</style>
<g>
	<polygon class="st0" points="808.9,11.3 806,6.3 274,6.3 271.1,11.3 	"/>
	<polygon class="st0" points="270.4,921.3 274,927.7 806,927.7 809.6,921.3 	"/>
	<g>
		<path class="st0" d="M101.2,541.3H51l5.8,10H103C102.3,548,101.7,544.7,101.2,541.3z"/>
		<path class="st0" d="M978.8,541.3c-0.6,3.3-1.2,6.7-1.8,10h46.2l5.8-10H978.8z"/>
	</g>
	<g>
		<path class="st0" d="M105,561.3H62.5l5.8,10h39C106.5,568,105.7,564.7,105,561.3z"/>
		<path class="st0" d="M975,561.3c-0.7,3.3-1.5,6.7-2.3,10h39l5.8-10H975z"/>
	</g>
	<g>
		<path class="st0" d="M964.4,601.3c-1.1,3.4-2.2,6.7-3.3,10h27.6l5.8-10H964.4z"/>
		<path class="st0" d="M115.6,601.3h-30l5.8,10h27.6C117.8,608,116.7,604.7,115.6,601.3z"/>
	</g>
	<g>
		<path class="st0" d="M130.4,641.3h-21.7l5.8,10h20.4C133.3,648,131.9,644.7,130.4,641.3z"/>
		<path class="st0" d="M945.1,651.3h20.4l5.8-10h-21.7C948.1,644.7,946.7,648,945.1,651.3z"/>
	</g>
	<g>
		<path class="st0" d="M953.7,631.3h23.4l5.8-10h-25.3C956.3,624.7,955,628,953.7,631.3z"/>
		<path class="st0" d="M122.5,621.3H97.2l5.8,10h23.4C125,628,123.7,624.7,122.5,621.3z"/>
	</g>
	<g>
		<path class="st0" d="M139.6,661.3h-19.3l5.8,10h18.6C142.9,668,141.2,664.7,139.6,661.3z"/>
		<path class="st0" d="M935.4,671.3H954l5.8-10h-19.3C938.8,664.7,937.1,668,935.4,671.3z"/>
	</g>
	<g>
		<path class="st0" d="M149.9,681.3h-18.1l5.8,10h18C153.7,688,151.8,684.7,149.9,681.3z"/>
		<path class="st0" d="M924.4,691.3h18l5.8-10h-18.1C928.2,684.7,926.3,688,924.4,691.3z"/>
	</g>
	<g>
		<path class="st0" d="M898,731.3h21.3l5.8-10h-19.9C902.9,724.7,900.5,728,898,731.3z"/>
		<path class="st0" d="M174.8,721.3h-19.9l5.8,10H182C179.5,728,177.1,724.7,174.8,721.3z"/>
	</g>
	<g>
		<path class="st0" d="M161.6,701.3h-18.3l5.8,10H168C165.8,708,163.7,704.7,161.6,701.3z"/>
		<path class="st0" d="M912,711.3h18.9l5.8-10h-18.3C916.3,704.7,914.2,708,912,711.3z"/>
	</g>
	<g>
		<path class="st0" d="M882.3,751.3h25.5l5.8-10h-23.2C887.8,744.7,885.1,748,882.3,751.3z"/>
		<path class="st0" d="M189.6,741.3h-23.2l5.8,10h25.5C194.9,748,192.2,744.7,189.6,741.3z"/>
	</g>
	<g>
		<path class="st0" d="M206.2,761.3H178l5.8,10h31.6C212.3,768,209.2,764.7,206.2,761.3z"/>
		<path class="st0" d="M864.7,771.3h31.6l5.8-10h-28.3C870.8,764.7,867.7,768,864.7,771.3z"/>
	</g>
	<g>
		<path class="st0" d="M844.7,791.3h40l5.8-10H855C851.6,784.7,848.2,788,844.7,791.3z"/>
		<path class="st0" d="M225,781.3h-35.5l5.8,10h40C231.8,788,228.4,784.7,225,781.3z"/>
	</g>
	<g>
		<path class="st0" d="M821.9,811.3h51.2l5.8-10h-45.2C829.8,804.7,825.9,808.1,821.9,811.3z"/>
		<path class="st0" d="M246.3,801.3h-45.2l5.8,10h51.2C254.1,808.1,250.2,804.7,246.3,801.3z"/>
	</g>
	<g>
		<path class="st0" d="M764.4,851.3h85.6l5.8-10h-75.1C775.4,844.8,770,848.1,764.4,851.3z"/>
		<path class="st0" d="M299.3,841.3h-75.1l5.8,10h85.6C310,848.1,304.6,844.8,299.3,841.3z"/>
	</g>
	<g>
		<path class="st0" d="M270.8,821.3h-58.1l5.8,10h66C279.8,828.1,275.2,824.7,270.8,821.3z"/>
		<path class="st0" d="M795.6,831.3h66l5.8-10h-58.1C804.8,824.7,800.2,828.1,795.6,831.3z"/>
	</g>
	<g>
		<path class="st0" d="M726.1,871.3h112.4l5.8-10h-97.9C739.7,864.8,733,868.2,726.1,871.3z"/>
		<path class="st0" d="M333.6,861.3h-97.9l5.8,10h112.4C347,868.2,340.3,864.8,333.6,861.3z"/>
	</g>
	<g>
		<path class="st0" d="M377.3,881.3H247.3l5.8,10h152.5C396,888.3,386.6,885,377.3,881.3z"/>
		<path class="st0" d="M674.4,891.3H827l5.8-10H702.7C693.4,885,684,888.3,674.4,891.3z"/>
	</g>
	<g>
		<path class="st0" d="M442.7,901.3H258.8l5.8,10h250.8C490.6,910,466.3,906.6,442.7,901.3z"/>
		<path class="st0" d="M564.6,911.3h250.8l5.8-10H637.3C613.7,906.6,589.4,910,564.6,911.3z"/>
	</g>
	<g>
		<path class="st0" d="M984.7,451.3h78.2l-5.8-10h-72.9C984.5,444.6,984.6,448,984.7,451.3z"/>
		<path class="st0" d="M95.7,441.3H22.9l-5.8,10h78.2C95.4,448,95.5,444.6,95.7,441.3z"/>
	</g>
	<g>
		<path class="st0" d="M983.6,431.3h67.8l-5.8-10h-62.9C983,424.6,983.3,428,983.6,431.3z"/>
		<path class="st0" d="M97.3,421.3H34.4l-5.8,10h67.8C96.7,428,97,424.6,97.3,421.3z"/>
	</g>
	<g>
		<path class="st0" d="M981.5,411.3h58.3l-5.8-10h-53.8C980.7,404.6,981.1,408,981.5,411.3z"/>
		<path class="st0" d="M99.8,401.3H46l-5.8,10h58.3C98.9,408,99.3,404.6,99.8,401.3z"/>
	</g>
	<g>
		<path class="st0" d="M103.2,381.3H57.5l-5.8,10h49.7C102,388,102.6,384.6,103.2,381.3z"/>
		<path class="st0" d="M978.6,391.3h49.7l-5.8-10h-45.7C977.4,384.6,978,388,978.6,391.3z"/>
	</g>
	<g>
		<path class="st0" d="M974.7,371.3h42l-5.8-10h-38.6C973.2,364.6,974,368,974.7,371.3z"/>
		<path class="st0" d="M107.6,361.3H69.1l-5.8,10h42C106,368,106.8,364.6,107.6,361.3z"/>
	</g>
	<g>
		<path class="st0" d="M113,341.3H80.6l-5.8,10h35.3C111.1,348,112,344.6,113,341.3z"/>
		<path class="st0" d="M969.8,351.3h35.3l-5.8-10H967C968,344.6,968.9,348,969.8,351.3z"/>
	</g>
	<g>
		<path class="st0" d="M963.9,331.3h29.7l-5.8-10h-27.2C961.7,324.6,962.9,328,963.9,331.3z"/>
		<path class="st0" d="M119.4,321.3H92.2l-5.8,10h29.7C117.1,328,118.3,324.6,119.4,321.3z"/>
	</g>
	<g>
		<path class="st0" d="M957,311.3h25.1l-5.8-10h-23.2C954.5,304.6,955.7,308,957,311.3z"/>
		<path class="st0" d="M126.9,301.3h-23.2l-5.8,10H123C124.3,308,125.5,304.6,126.9,301.3z"/>
	</g>
	<g>
		<path class="st0" d="M135.5,281.3h-20.2l-5.8,10H131C132.5,288,134,284.6,135.5,281.3z"/>
		<path class="st0" d="M949,291.3h21.5l-5.8-10h-20.2C946,284.6,947.5,288,949,291.3z"/>
	</g>
	<g>
		<path class="st0" d="M939.8,271.3H959l-5.8-10h-18.5C936.4,264.6,938.1,268,939.8,271.3z"/>
		<path class="st0" d="M145.3,261.3h-18.5l-5.8,10h19.2C141.9,268,143.6,264.6,145.3,261.3z"/>
	</g>
	<g>
		<path class="st0" d="M929.3,251.3h18.1l-5.8-10h-18C925.6,244.6,927.5,248,929.3,251.3z"/>
		<path class="st0" d="M156.4,241.3h-18l-5.8,10h18.1C152.5,248,154.4,244.6,156.4,241.3z"/>
	</g>
	<g>
		<path class="st0" d="M917.5,231.3h18.3l-5.8-10h-19C913.3,224.6,915.4,228,917.5,231.3z"/>
		<path class="st0" d="M168.9,221.3h-19l-5.8,10h18.3C164.6,228,166.7,224.6,168.9,221.3z"/>
	</g>
	<g>
		<path class="st0" d="M889.3,191.3h23.4l-5.8-10h-25.8C884,184.6,886.7,188,889.3,191.3z"/>
		<path class="st0" d="M198.8,181.3H173l-5.8,10h23.4C193.3,188,196,184.6,198.8,181.3z"/>
	</g>
	<g>
		<path class="st0" d="M904.3,211.3h20.1l-5.8-10H897C899.5,204.6,901.9,208,904.3,211.3z"/>
		<path class="st0" d="M183,201.3h-21.5l-5.8,10h20.1C178.1,208,180.5,204.6,183,201.3z"/>
	</g>
	<g>
		<path class="st0" d="M872.6,171.3h28.7l-5.8-10h-32.1C866.5,164.6,869.6,167.9,872.6,171.3z"/>
		<path class="st0" d="M216.6,161.3h-32.1l-5.8,10h28.7C210.4,167.9,213.5,164.6,216.6,161.3z"/>
	</g>
	<g>
		<path class="st0" d="M853.6,151.3h36.1l-5.8-10h-40.7C846.8,144.6,850.2,147.9,853.6,151.3z"/>
		<path class="st0" d="M236.7,141.3h-40.7l-5.8,10h36.1C229.8,147.9,233.2,144.6,236.7,141.3z"/>
	</g>
	<g>
		<path class="st0" d="M832.1,131.3h46l-5.8-10h-52.1C824.3,124.6,828.2,127.9,832.1,131.3z"/>
		<path class="st0" d="M259.8,121.3h-52.1l-5.8,10h46C251.8,127.9,255.7,124.6,259.8,121.3z"/>
	</g>
	<g>
		<path class="st0" d="M807.5,111.3h59.1l-5.8-10h-67.2C798.3,104.6,802.9,107.9,807.5,111.3z"/>
		<path class="st0" d="M286.3,101.3h-67.2l-5.8,10h59.1C277.1,107.9,281.7,104.6,286.3,101.3z"/>
	</g>
	<g>
		<path class="st0" d="M778.6,91.3H855l-5.8-10h-87.1C767.7,84.5,773.2,87.9,778.6,91.3z"/>
		<path class="st0" d="M317.9,81.3h-87.1l-5.8,10h76.4C306.8,87.9,312.3,84.5,317.9,81.3z"/>
	</g>
	<g>
		<path class="st0" d="M743.8,71.3h99.7l-5.8-10H723.2C730.1,64.5,737,67.8,743.8,71.3z"/>
		<path class="st0" d="M356.8,61.3H242.3l-5.8,10h99.7C343,67.8,349.9,64.5,356.8,61.3z"/>
	</g>
	<g>
		<path class="st0" d="M409.9,41.3H253.8l-5.8,10h132.8C390.4,47.7,400.1,44.3,409.9,41.3z"/>
		<path class="st0" d="M699.2,51.3H832l-5.8-10H670.1C679.9,44.3,689.6,47.7,699.2,51.3z"/>
	</g>
	<path class="st0" d="M540,22c31.2,0,61.6,3.2,91,9.3h189.4l-5.8-10H265.4l-5.8,10H449C478.4,25.2,508.8,22,540,22z"/>
	<g>
		<path class="st0" d="M95,467c0-1.9,0-3.8,0-5.7H11.3L8.1,467l2.5,4.3H95C95,469.9,95,468.4,95,467z"/>
		<path class="st0" d="M1068.7,461.3H985c0,1.9,0,3.8,0,5.7c0,1.4,0,2.9,0,4.3h84.5l2.5-4.3L1068.7,461.3z"/>
	</g>
	<g>
		<path class="st0" d="M984.8,481.3c-0.1,3.3-0.2,6.7-0.4,10h73.6l5.8-10H984.8z"/>
		<path class="st0" d="M95.2,481.3H16.3l5.8,10h73.6C95.5,488,95.3,484.7,95.2,481.3z"/>
	</g>
	<g>
		<path class="st0" d="M983.7,501.3c-0.3,3.3-0.6,6.7-0.9,10h63.5l5.8-10H983.7z"/>
		<path class="st0" d="M96.3,501.3H27.9l5.8,10h63.5C96.9,508,96.6,504.7,96.3,501.3z"/>
	</g>
	<g>
		<path class="st0" d="M98.3,521.3H39.4l5.8,10h54.4C99.1,528,98.7,524.7,98.3,521.3z"/>
		<path class="st0" d="M981.7,521.3c-0.4,3.3-0.9,6.7-1.3,10h54.4l5.8-10H981.7z"/>
	</g>
	<g>
		<path class="st0" d="M109.8,581.3H74.1l5.8,10h32.8C111.6,588,110.7,584.7,109.8,581.3z"/>
		<path class="st0" d="M970.2,581.3c-0.9,3.3-1.8,6.7-2.8,10h32.8l5.8-10H970.2z"/>
	</g>
</g>
<g>
	<g>
		<g>
			<path class="st1" d="M142.9,467c-1.4,13.4-2.1,27-2.1,40.8c0,99.8,36.6,191.1,97.2,261.1c71.1,82.2,175.2,135,291.6,137.9
				c-234.8-5.4-424.2-194.7-429.6-429.6c0-1.7-0.1-3.4-0.1-5.1c0-1.7,0-3.4,0-5.2c0-1.7,0-3.4,0-5.2c0-1.7,0.1-3.4,0.1-5.1
				c3-116.4,55.8-220.5,137.9-291.6c70-60.6,161.2-97.2,261.1-97.2c13.8,0,27.4,0.7,40.8,2.1h0.1c104,10.6,196.2,61.1,261,136
				c-70-60.6-161.2-97.2-261.1-97.2c-99.8,0-191,36.6-261,97.2C204.1,270.7,153.5,362.9,142.9,467L142.9,467z"/>
			<path class="st2" d="M142.9,467c-1.4,13.4-2.1,27-2.1,40.8c0,99.8,36.6,191.1,97.2,261.1c71.1,82.2,175.2,135,291.6,137.9
				c-234.8-5.4-424.2-194.7-429.6-429.6c0-1.7-0.1-3.4-0.1-5.1c0-1.7,0-3.4,0-5.2c0-1.7,0-3.4,0-5.2c0-1.7,0.1-3.4,0.1-5.1
				c3-116.4,55.8-220.5,137.9-291.6c70-60.6,161.2-97.2,261.1-97.2c13.8,0,27.4,0.7,40.8,2.1h0.1c104,10.6,196.2,61.1,261,136
				c-70-60.6-161.2-97.2-261.1-97.2c-99.8,0-191,36.6-261,97.2C204.1,270.7,153.5,362.9,142.9,467L142.9,467z"/>
		</g>
		<g>
			<path class="st3" d="M979.9,477.3c-5.4,234.8-194.7,424.2-429.6,429.6c-1.7,0-3.4,0.1-5.1,0.1c-1.7,0-3.4,0-5.2,0
				c-1.7,0-3.4,0-5.2,0c-1.7,0-3.4-0.1-5.1-0.1c-116.4-3-220.5-55.8-291.6-137.9c-60.6-70-97.2-161.2-97.2-261.1
				c0-13.8,0.7-27.4,2.1-40.8V467c10.6-104,61.1-196.3,136.1-261.1c-60.6,70-97.3,161.3-97.3,261.1c0,99.8,36.7,191.1,97.3,261.1
				c64.8,74.9,157,125.4,261,135.9h0.1c13.4,1.4,27,2.1,40.8,2.1c99.8,0,191.1-36.6,261.1-97.2C924.1,697.8,976.9,593.8,979.9,477.3
				z"/>
			<path class="st2" d="M979.9,477.3c-5.4,234.8-194.7,424.2-429.6,429.6c-1.7,0-3.4,0.1-5.1,0.1c-1.7,0-3.4,0-5.2,0
				c-1.7,0-3.4,0-5.2,0c-1.7,0-3.4-0.1-5.1-0.1c-116.4-3-220.5-55.8-291.6-137.9c-60.6-70-97.2-161.2-97.2-261.1
				c0-13.8,0.7-27.4,2.1-40.8V467c10.6-104,61.1-196.3,136.1-261.1c-60.6,70-97.3,161.3-97.3,261.1c0,99.8,36.7,191.1,97.3,261.1
				c64.8,74.9,157,125.4,261,135.9h0.1c13.4,1.4,27,2.1,40.8,2.1c99.8,0,191.1-36.6,261.1-97.2C924.1,697.8,976.9,593.8,979.9,477.3
				z"/>
		</g>
		<g>
			<path class="st1" d="M980,467c0,1.7,0,3.4,0,5.2c0,1.7-0.1,3.4-0.1,5.1c-3,116.4-55.8,220.5-137.9,291.6
				c-70,60.6-161.2,97.2-261.1,97.2c-13.8,0-27.4-0.7-40.8-2.1H540C436,853.5,343.8,803,279,728.1c70,60.5,161.2,97.2,261,97.2
				c99.8,0,191.1-36.6,261.1-97.2c74.9-64.8,125.4-157,136-261V467c1.4-13.4,2.1-27,2.1-40.8c0-99.8-36.6-191.1-97.2-261.1
				c-71.1-82.2-175.2-135-291.6-137.9c234.8,5.4,424.2,194.7,429.6,429.6c0,1.7,0.1,3.4,0.1,5.1C980,463.6,980,465.3,980,467z"/>
			<path class="st2" d="M980,467c0,1.7,0,3.4,0,5.2c0,1.7-0.1,3.4-0.1,5.1c-3,116.4-55.8,220.5-137.9,291.6
				c-70,60.6-161.2,97.2-261.1,97.2c-13.8,0-27.4-0.7-40.8-2.1H540C436,853.5,343.8,803,279,728.1c70,60.5,161.2,97.2,261,97.2
				c99.8,0,191.1-36.6,261.1-97.2c74.9-64.8,125.4-157,136-261V467c1.4-13.4,2.1-27,2.1-40.8c0-99.8-36.6-191.1-97.2-261.1
				c-71.1-82.2-175.2-135-291.6-137.9c234.8,5.4,424.2,194.7,429.6,429.6c0,1.7,0.1,3.4,0.1,5.1C980,463.6,980,465.3,980,467z"/>
		</g>
		<g>
			<path class="st3" d="M939.1,426.1c0,13.8-0.7,27.4-2.1,40.8v0.1c-10.6,104-61.1,196.2-136,261c60.6-70,97.2-161.3,97.2-261.1
				c0-99.8-36.6-191.1-97.2-261.1c-64.8-74.9-157-125.4-261-136H540c-13.4-1.4-27-2.1-40.8-2.1c-99.8,0-191.1,36.6-261.1,97.2
				c-82.2,71.1-135,175.2-137.9,291.6c5.4-234.8,194.7-424.2,429.6-429.6c1.7,0,3.4-0.1,5.1-0.1c1.7,0,3.4,0,5.2,0
				c1.7,0,3.4,0,5.2,0c1.7,0,3.4,0.1,5.1,0.1c116.5,3,220.5,55.8,291.6,137.9C902.5,235.1,939.1,326.3,939.1,426.1z"/>
			<path class="st2" d="M939.1,426.1c0,13.8-0.7,27.4-2.1,40.8v0.1c-10.6,104-61.1,196.2-136,261c60.6-70,97.2-161.3,97.2-261.1
				c0-99.8-36.6-191.1-97.2-261.1c-64.8-74.9-157-125.4-261-136H540c-13.4-1.4-27-2.1-40.8-2.1c-99.8,0-191.1,36.6-261.1,97.2
				c-82.2,71.1-135,175.2-137.9,291.6c5.4-234.8,194.7-424.2,429.6-429.6c1.7,0,3.4-0.1,5.1-0.1c1.7,0,3.4,0,5.2,0
				c1.7,0,3.4,0,5.2,0c1.7,0,3.4,0.1,5.1,0.1c116.5,3,220.5,55.8,291.6,137.9C902.5,235.1,939.1,326.3,939.1,426.1z"/>
		</g>
	</g>
	<g class="st4">
		<g>
			<path class="st5" d="M142.9,467c-1.4,13.4-2.1,27-2.1,40.8c0,99.8,36.6,191.1,97.2,261.1c71.1,82.2,175.2,135,291.6,137.9
				c-234.8-5.4-424.2-194.7-429.6-429.6c0-1.7-0.1-3.4-0.1-5.1c0-1.7,0-3.4,0-5.2c0-1.7,0-3.4,0-5.2c0-1.7,0.1-3.4,0.1-5.1
				c3-116.4,55.8-220.5,137.9-291.6c70-60.6,161.2-97.2,261.1-97.2c13.8,0,27.4,0.7,40.8,2.1h0.1c104,10.6,196.2,61.1,261,136
				c-70-60.6-161.2-97.2-261.1-97.2c-99.8,0-191,36.6-261,97.2C204.1,270.7,153.5,362.9,142.9,467L142.9,467z"/>
			<path class="st5" d="M142.9,467c-1.4,13.4-2.1,27-2.1,40.8c0,99.8,36.6,191.1,97.2,261.1c71.1,82.2,175.2,135,291.6,137.9
				c-234.8-5.4-424.2-194.7-429.6-429.6c0-1.7-0.1-3.4-0.1-5.1c0-1.7,0-3.4,0-5.2c0-1.7,0-3.4,0-5.2c0-1.7,0.1-3.4,0.1-5.1
				c3-116.4,55.8-220.5,137.9-291.6c70-60.6,161.2-97.2,261.1-97.2c13.8,0,27.4,0.7,40.8,2.1h0.1c104,10.6,196.2,61.1,261,136
				c-70-60.6-161.2-97.2-261.1-97.2c-99.8,0-191,36.6-261,97.2C204.1,270.7,153.5,362.9,142.9,467L142.9,467z"/>
		</g>
		<g>
			<path class="st5" d="M979.9,477.3c-5.4,234.8-194.7,424.2-429.6,429.6c-1.7,0-3.4,0.1-5.1,0.1c-1.7,0-3.4,0-5.2,0
				c-1.7,0-3.4,0-5.2,0c-1.7,0-3.4-0.1-5.1-0.1c-116.4-3-220.5-55.8-291.6-137.9c-60.6-70-97.2-161.2-97.2-261.1
				c0-13.8,0.7-27.4,2.1-40.8V467c10.6-104,61.1-196.3,136.1-261.1c-60.6,70-97.3,161.3-97.3,261.1c0,99.8,36.7,191.1,97.3,261.1
				c64.8,74.9,157,125.4,261,135.9h0.1c13.4,1.4,27,2.1,40.8,2.1c99.8,0,191.1-36.6,261.1-97.2C924.1,697.8,976.9,593.8,979.9,477.3
				z"/>
			<path class="st5" d="M979.9,477.3c-5.4,234.8-194.7,424.2-429.6,429.6c-1.7,0-3.4,0.1-5.1,0.1c-1.7,0-3.4,0-5.2,0
				c-1.7,0-3.4,0-5.2,0c-1.7,0-3.4-0.1-5.1-0.1c-116.4-3-220.5-55.8-291.6-137.9c-60.6-70-97.2-161.2-97.2-261.1
				c0-13.8,0.7-27.4,2.1-40.8V467c10.6-104,61.1-196.3,136.1-261.1c-60.6,70-97.3,161.3-97.3,261.1c0,99.8,36.7,191.1,97.3,261.1
				c64.8,74.9,157,125.4,261,135.9h0.1c13.4,1.4,27,2.1,40.8,2.1c99.8,0,191.1-36.6,261.1-97.2C924.1,697.8,976.9,593.8,979.9,477.3
				z"/>
		</g>
		<g>
			<path class="st5" d="M980,467c0,1.7,0,3.4,0,5.2c0,1.7-0.1,3.4-0.1,5.1c-3,116.4-55.8,220.5-137.9,291.6
				c-70,60.6-161.2,97.2-261.1,97.2c-13.8,0-27.4-0.7-40.8-2.1H540C436,853.5,343.8,803,279,728.1c70,60.5,161.2,97.2,261,97.2
				c99.8,0,191.1-36.6,261.1-97.2c74.9-64.8,125.4-157,136-261V467c1.4-13.4,2.1-27,2.1-40.8c0-99.8-36.6-191.1-97.2-261.1
				c-71.1-82.2-175.2-135-291.6-137.9c234.8,5.4,424.2,194.7,429.6,429.6c0,1.7,0.1,3.4,0.1,5.1C980,463.6,980,465.3,980,467z"/>
			<path class="st5" d="M980,467c0,1.7,0,3.4,0,5.2c0,1.7-0.1,3.4-0.1,5.1c-3,116.4-55.8,220.5-137.9,291.6
				c-70,60.6-161.2,97.2-261.1,97.2c-13.8,0-27.4-0.7-40.8-2.1H540C436,853.5,343.8,803,279,728.1c70,60.5,161.2,97.2,261,97.2
				c99.8,0,191.1-36.6,261.1-97.2c74.9-64.8,125.4-157,136-261V467c1.4-13.4,2.1-27,2.1-40.8c0-99.8-36.6-191.1-97.2-261.1
				c-71.1-82.2-175.2-135-291.6-137.9c234.8,5.4,424.2,194.7,429.6,429.6c0,1.7,0.1,3.4,0.1,5.1C980,463.6,980,465.3,980,467z"/>
		</g>
		<g>
			<path class="st5" d="M939.1,426.1c0,13.8-0.7,27.4-2.1,40.8v0.1c-10.6,104-61.1,196.2-136,261c60.6-70,97.2-161.3,97.2-261.1
				c0-99.8-36.6-191.1-97.2-261.1c-64.8-74.9-157-125.4-261-136H540c-13.4-1.4-27-2.1-40.8-2.1c-99.8,0-191.1,36.6-261.1,97.2
				c-82.2,71.1-135,175.2-137.9,291.6c5.4-234.8,194.7-424.2,429.6-429.6c1.7,0,3.4-0.1,5.1-0.1c1.7,0,3.4,0,5.2,0
				c1.7,0,3.4,0,5.2,0c1.7,0,3.4,0.1,5.1,0.1c116.5,3,220.5,55.8,291.6,137.9C902.5,235.1,939.1,326.3,939.1,426.1z"/>
			<path class="st5" d="M939.1,426.1c0,13.8-0.7,27.4-2.1,40.8v0.1c-10.6,104-61.1,196.2-136,261c60.6-70,97.2-161.3,97.2-261.1
				c0-99.8-36.6-191.1-97.2-261.1c-64.8-74.9-157-125.4-261-136H540c-13.4-1.4-27-2.1-40.8-2.1c-99.8,0-191.1,36.6-261.1,97.2
				c-82.2,71.1-135,175.2-137.9,291.6c5.4-234.8,194.7-424.2,429.6-429.6c1.7,0,3.4-0.1,5.1-0.1c1.7,0,3.4,0,5.2,0
				c1.7,0,3.4,0,5.2,0c1.7,0,3.4,0.1,5.1,0.1c116.5,3,220.5,55.8,291.6,137.9C902.5,235.1,939.1,326.3,939.1,426.1z"/>
		</g>
	</g>
</g>
<g>
	<path class="st6" d="M315.2,605.3v46.1h-13.3v-46.1h-15.8v-10.2h45.5l-1.4,10.2H315.2z"/>
	<path class="st6" d="M382.3,604.6v13.5h19.5v9.3h-19.5v14.4h23.5v9.5H369v-56.3h36.8l-1.3,9.5H382.3z"/>
	<path class="st6" d="M484.6,634.9c0,3.5-0.9,6.6-2.7,9.3c-1.8,2.7-4.4,4.8-7.9,6.3c-3.4,1.5-7.5,2.3-12.3,2.3
		c-5.3,0-9.7-0.8-13.3-2.3c-3.6-1.6-6.6-3.5-8.9-5.8l6.7-7.5c2.1,1.8,4.4,3.2,6.9,4.2c2.5,1,5.3,1.5,8.3,1.5c1.9,0,3.5-0.3,4.9-0.8
		c1.4-0.5,2.5-1.3,3.3-2.4c0.8-1,1.2-2.3,1.2-3.7c0-1.4-0.3-2.5-0.9-3.5c-0.6-0.9-1.7-1.8-3.1-2.6c-1.5-0.8-3.5-1.5-6.1-2.3
		c-4.4-1.4-7.9-2.8-10.6-4.5s-4.6-3.5-5.8-5.6c-1.2-2.1-1.8-4.6-1.8-7.5c0-3.4,1-6.4,2.9-8.8c1.9-2.4,4.5-4.3,7.7-5.6
		c3.2-1.3,6.8-1.9,10.6-1.9c4.4,0,8.2,0.6,11.5,1.9c3.3,1.3,6.2,3.1,8.6,5.4l-6.3,7.2c-1.9-1.6-3.9-2.8-6.1-3.6
		c-2.2-0.8-4.4-1.2-6.7-1.2c-1.7,0-3.2,0.2-4.4,0.6c-1.3,0.4-2.3,1-3,1.8c-0.7,0.8-1.1,1.8-1.1,3c0,1.2,0.3,2.2,1,3
		c0.7,0.8,1.9,1.6,3.5,2.3c1.7,0.7,4,1.5,7,2.5c3.5,1.1,6.6,2.4,9.1,3.9c2.5,1.5,4.5,3.4,5.8,5.7C484,628.6,484.6,631.4,484.6,634.9
		z"/>
	<path class="st6" d="M546.6,605.3v46.1h-13.3v-46.1h-15.8v-10.2H563l-1.4,10.2H546.6z"/>
	<path class="st6" d="M635.4,595.1v9.7h-11.6v36.7h11.6v9.8h-36.5v-9.8h11.6v-36.7h-11.6v-9.7H635.4z"/>
	<path class="st6" d="M698.2,651.3l-14.8-45.3c0.2,1.2,0.4,2.7,0.6,4.4c0.2,1.7,0.5,3.6,0.7,5.7c0.2,2.1,0.4,4.3,0.5,6.7
		c0.1,2.4,0.2,4.8,0.2,7.2v21.2h-11.3v-56.3h16.6l14.4,45c-0.3-1.7-0.6-3.7-0.9-6.1c-0.3-2.4-0.6-5-0.8-7.9s-0.3-6.1-0.3-9.4v-21.6
		h11.3v56.3H698.2z"/>
	<path class="st6" d="M773.4,652.7c-5.3,0-9.8-1.1-13.5-3.4c-3.7-2.3-6.4-5.6-8.3-10c-1.9-4.4-2.8-9.8-2.8-16.3c0-4.8,0.7-9,2-12.7
		c1.3-3.7,3.2-6.7,5.6-9.2c2.4-2.5,5.2-4.3,8.3-5.6c3.2-1.3,6.6-1.9,10.2-1.9c4.1,0,7.6,0.6,10.4,1.9c2.8,1.3,5.3,2.9,7.5,5l-7,7.2
		c-1.7-1.5-3.3-2.6-4.9-3.4s-3.4-1.1-5.4-1.1c-1.9,0-3.6,0.4-5.2,1.1s-3,1.9-4.1,3.5s-2.1,3.6-2.7,6.1s-1,5.5-1,9.1
		c0,4.9,0.4,8.8,1.2,11.7s2,5,3.6,6.2c1.6,1.3,3.7,1.9,6.2,1.9c1.3,0,2.6-0.2,3.7-0.5c1.2-0.3,2.2-0.7,3.2-1.2v-12.9h-7.1l-1.3-9.3
		h20.9v28c-2.8,1.7-5.8,3.1-9.1,4.1C780.8,652.2,777.3,652.7,773.4,652.7z"/>
	<path class="st6" d="M407.5,748.7v-56.3h13.3v45.7h24.4l-1.4,10.5H407.5z"/>
	<path class="st6" d="M509.6,736.6h-16.5l-3,12.1h-13.9l17.2-56.3h16.2l17.2,56.3h-14.2L509.6,736.6z M495.2,726.9h12.2l-6.1-24.9
		L495.2,726.9z"/>
	<path class="st6" d="M600.6,732.3c0,3.2-0.6,5.9-1.9,8.1c-1.2,2.1-2.9,3.8-5.1,5c-2.2,1.2-4.6,2.1-7.4,2.6
		c-2.8,0.5-5.7,0.8-8.7,0.8h-18.7v-56.3h17.8c2.9,0,5.6,0.2,8.2,0.7s4.9,1.3,6.9,2.4c2,1.1,3.6,2.6,4.7,4.4c1.1,1.9,1.7,4.1,1.7,6.9
		c0,2.2-0.5,4.2-1.4,5.8c-0.9,1.6-2.2,3-3.8,4c-1.6,1-3.3,1.8-5.1,2.3c2,0.3,4,1,5.9,1.9s3.6,2.3,4.9,4.2
		C599.9,726.8,600.6,729.3,600.6,732.3z M584.7,708.2c0-2.2-0.7-3.8-2.1-4.8s-3.6-1.5-6.5-1.5h-4.1v13h4.5c2.9,0,4.9-0.5,6.2-1.6
		C584.1,712.3,584.7,710.6,584.7,708.2z M586.8,731.7c0-2-0.4-3.5-1.2-4.7c-0.8-1.1-1.9-2-3.2-2.5c-1.4-0.5-3-0.7-4.9-0.7h-5.5V739
		h4.9c1.3,0,2.5-0.1,3.7-0.3c1.2-0.2,2.2-0.5,3.2-1.1c0.9-0.5,1.7-1.3,2.2-2.2C586.6,734.5,586.8,733.3,586.8,731.7z"/>
	<path class="st6" d="M677.4,732.3c0,3.5-0.9,6.6-2.7,9.3c-1.8,2.7-4.4,4.8-7.9,6.3c-3.4,1.5-7.5,2.3-12.3,2.3
		c-5.3,0-9.7-0.8-13.3-2.3c-3.6-1.6-6.6-3.5-8.9-5.8l6.7-7.5c2.1,1.8,4.4,3.2,6.9,4.2c2.5,1,5.3,1.5,8.3,1.5c1.9,0,3.5-0.3,4.9-0.8
		s2.5-1.3,3.3-2.4c0.8-1,1.2-2.3,1.2-3.7c0-1.4-0.3-2.5-0.9-3.5c-0.6-0.9-1.7-1.8-3.1-2.6c-1.5-0.8-3.5-1.5-6.1-2.3
		c-4.4-1.4-7.9-2.8-10.6-4.5s-4.6-3.5-5.8-5.6c-1.2-2.1-1.8-4.6-1.8-7.5c0-3.4,1-6.4,2.9-8.8c1.9-2.4,4.5-4.3,7.7-5.6
		s6.8-1.9,10.6-1.9c4.4,0,8.2,0.6,11.5,1.9c3.3,1.3,6.2,3.1,8.6,5.4l-6.3,7.2c-1.9-1.6-3.9-2.8-6.1-3.6c-2.2-0.8-4.4-1.2-6.7-1.2
		c-1.7,0-3.2,0.2-4.4,0.6c-1.3,0.4-2.3,1-3,1.8c-0.7,0.8-1.1,1.8-1.1,3c0,1.2,0.3,2.2,1,3c0.7,0.8,1.9,1.6,3.5,2.3
		c1.7,0.7,4,1.5,7,2.5c3.5,1.1,6.6,2.4,9.1,3.9c2.5,1.5,4.5,3.4,5.8,5.7C676.8,726,677.4,728.8,677.4,732.3z"/>
</g>
<g>
	<path class="st0" d="M595.5,436.1c-14.6,67.8-65.8,117.3-156.8,117.3c-115.3,0-169.8-81.6-169.8-185.1c0-99.7,56.3-189,173.6-189
		c96.8,0,143.8,56.8,152.7,117.6h-78.6c-7.6-28-27.1-56-76.5-56c-64.9,0-89.9,58.3-89.9,124.5c0,61.5,21.7,126.2,92,126.2
		c51.3,0,67.5-34.4,74.4-55.6H595.5z"/>
	<path class="st0" d="M734.7,184.6v363.7h-78.6V184.6H734.7z"/>
</g>
</svg>
