<?xml version="1.0" encoding="utf-8"?>
<!-- Generator: Adobe Illustrator 26.1.0, SVG Export Plug-In . SVG Version: 6.00 Build 0)  -->
<svg version="1.1" id="Layer_1" xmlns="http://www.w3.org/2000/svg" xmlns:xlink="http://www.w3.org/1999/xlink" x="0px" y="0px"
	 viewBox="0 0 1080 934" style="enable-background:new 0 0 1080 934;" xml:space="preserve">
<style type="text/css">
	.st0{fill:#3F4145;stroke:#FFFFFF;stroke-width:5;stroke-miterlimit:10;}
	.st1{fill:none;stroke:#FFFFFF;stroke-width:5;stroke-miterlimit:10;stroke-opacity:0;}
	.st2{fill:#00A1D9;stroke:#FFFFFF;stroke-width:5;stroke-miterlimit:10;}
	.st3{opacity:0;}
	.st4{fill:none;stroke:#FFFFFF;stroke-width:5;stroke-miterlimit:10;}
	.st5{fill:#3F4145;stroke:#3F4145;stroke-width:5;stroke-miterlimit:10;}
	.st6{fill:#3F4145;}
</style>
<g>
	<g>
		<g>
			<path class="st0" d="M142.9,467c-1.4,13.4-2.1,27-2.1,40.8c0,99.8,36.6,191.1,97.2,261.1c71.1,82.2,175.2,135,291.6,137.9
				C294.8,901.4,105.4,712.1,100,477.2c0-1.7-0.1-3.4-0.1-5.1s0-3.4,0-5.2c0-1.7,0-3.4,0-5.2c0-1.7,0.1-3.4,0.1-5.1
				c3-116.4,55.8-220.5,137.9-291.6c70-60.6,161.2-97.2,261.1-97.2c13.8,0,27.4,0.7,40.8,2.1h0.1c104,10.6,196.2,61.1,261,136
				c-70-60.6-161.2-97.2-261.1-97.2c-99.8,0-191,36.6-261,97.2C204.1,270.7,153.5,362.9,142.9,467L142.9,467z"/>
			<path class="st1" d="M142.9,467c-1.4,13.4-2.1,27-2.1,40.8c0,99.8,36.6,191.1,97.2,261.1c71.1,82.2,175.2,135,291.6,137.9
				C294.8,901.4,105.4,712.1,100,477.2c0-1.7-0.1-3.4-0.1-5.1s0-3.4,0-5.2c0-1.7,0-3.4,0-5.2c0-1.7,0.1-3.4,0.1-5.1
				c3-116.4,55.8-220.5,137.9-291.6c70-60.6,161.2-97.2,261.1-97.2c13.8,0,27.4,0.7,40.8,2.1h0.1c104,10.6,196.2,61.1,261,136
				c-70-60.6-161.2-97.2-261.1-97.2c-99.8,0-191,36.6-261,97.2C204.1,270.7,153.5,362.9,142.9,467L142.9,467z"/>
		</g>
		<g>
			<path class="st2" d="M979.9,477.3c-5.4,234.8-194.7,424.2-429.6,429.6c-1.7,0-3.4,0.1-5.1,0.1c-1.7,0-3.4,0-5.2,0
				c-1.7,0-3.4,0-5.2,0c-1.7,0-3.4-0.1-5.1-0.1c-116.4-3-220.5-55.8-291.6-137.9c-60.6-70-97.2-161.2-97.2-261.1
				c0-13.8,0.7-27.4,2.1-40.8V467c10.6-104,61.1-196.3,136.1-261.1c-60.6,70-97.3,161.3-97.3,261.1s36.7,191.1,97.3,261.1
				c64.8,74.9,157,125.4,261,135.9h0.1c13.4,1.4,27,2.1,40.8,2.1c99.8,0,191.1-36.6,261.1-97.2C924.1,697.8,976.9,593.8,979.9,477.3
				z"/>
			<path class="st1" d="M979.9,477.3c-5.4,234.8-194.7,424.2-429.6,429.6c-1.7,0-3.4,0.1-5.1,0.1c-1.7,0-3.4,0-5.2,0
				c-1.7,0-3.4,0-5.2,0c-1.7,0-3.4-0.1-5.1-0.1c-116.4-3-220.5-55.8-291.6-137.9c-60.6-70-97.2-161.2-97.2-261.1
				c0-13.8,0.7-27.4,2.1-40.8V467c10.6-104,61.1-196.3,136.1-261.1c-60.6,70-97.3,161.3-97.3,261.1s36.7,191.1,97.3,261.1
				c64.8,74.9,157,125.4,261,135.9h0.1c13.4,1.4,27,2.1,40.8,2.1c99.8,0,191.1-36.6,261.1-97.2C924.1,697.8,976.9,593.8,979.9,477.3
				z"/>
		</g>
		<g>
			<path class="st0" d="M980,467c0,1.7,0,3.4,0,5.2c0,1.7-0.1,3.4-0.1,5.1c-3,116.4-55.8,220.5-137.9,291.6
				c-70,60.6-161.2,97.2-261.1,97.2c-13.8,0-27.4-0.7-40.8-2.1H540c-104-10.5-196.2-61-261-135.9c70,60.5,161.2,97.2,261,97.2
				s191.1-36.6,261.1-97.2c74.9-64.8,125.4-157,136-261V467c1.4-13.4,2.1-27,2.1-40.8c0-99.8-36.6-191.1-97.2-261.1
				c-71.1-82.2-175.2-135-291.6-137.9C785.2,32.6,974.6,221.9,980,456.8c0,1.7,0.1,3.4,0.1,5.1C980,463.6,980,465.3,980,467z"/>
			<path class="st1" d="M980,467c0,1.7,0,3.4,0,5.2c0,1.7-0.1,3.4-0.1,5.1c-3,116.4-55.8,220.5-137.9,291.6
				c-70,60.6-161.2,97.2-261.1,97.2c-13.8,0-27.4-0.7-40.8-2.1H540c-104-10.5-196.2-61-261-135.9c70,60.5,161.2,97.2,261,97.2
				s191.1-36.6,261.1-97.2c74.9-64.8,125.4-157,136-261V467c1.4-13.4,2.1-27,2.1-40.8c0-99.8-36.6-191.1-97.2-261.1
				c-71.1-82.2-175.2-135-291.6-137.9C785.2,32.6,974.6,221.9,980,456.8c0,1.7,0.1,3.4,0.1,5.1C980,463.6,980,465.3,980,467z"/>
		</g>
		<g>
			<path class="st2" d="M939.1,426.1c0,13.8-0.7,27.4-2.1,40.8v0.1c-10.6,104-61.1,196.2-136,261c60.6-70,97.2-161.3,97.2-261.1
				S861.6,275.8,801,205.8c-64.8-74.9-157-125.4-261-136l0,0c-13.4-1.4-27-2.1-40.8-2.1c-99.8,0-191.1,36.6-261.1,97.2
				c-82.2,71.1-135,175.2-137.9,291.6c5.4-234.8,194.7-424.2,429.6-429.6c1.7,0,3.4-0.1,5.1-0.1c1.7,0,3.4,0,5.2,0
				c1.7,0,3.4,0,5.2,0c1.7,0,3.4,0.1,5.1,0.1c116.5,3,220.5,55.8,291.6,137.9C902.5,235.1,939.1,326.3,939.1,426.1z"/>
			<path class="st1" d="M939.1,426.1c0,13.8-0.7,27.4-2.1,40.8v0.1c-10.6,104-61.1,196.2-136,261c60.6-70,97.2-161.3,97.2-261.1
				S861.6,275.8,801,205.8c-64.8-74.9-157-125.4-261-136l0,0c-13.4-1.4-27-2.1-40.8-2.1c-99.8,0-191.1,36.6-261.1,97.2
				c-82.2,71.1-135,175.2-137.9,291.6c5.4-234.8,194.7-424.2,429.6-429.6c1.7,0,3.4-0.1,5.1-0.1c1.7,0,3.4,0,5.2,0
				c1.7,0,3.4,0,5.2,0c1.7,0,3.4,0.1,5.1,0.1c116.5,3,220.5,55.8,291.6,137.9C902.5,235.1,939.1,326.3,939.1,426.1z"/>
		</g>
	</g>
	<g class="st3">
		<g>
			<path class="st4" d="M142.9,467c-1.4,13.4-2.1,27-2.1,40.8c0,99.8,36.6,191.1,97.2,261.1c71.1,82.2,175.2,135,291.6,137.9
				C294.8,901.4,105.4,712.1,100,477.2c0-1.7-0.1-3.4-0.1-5.1s0-3.4,0-5.2c0-1.7,0-3.4,0-5.2c0-1.7,0.1-3.4,0.1-5.1
				c3-116.4,55.8-220.5,137.9-291.6c70-60.6,161.2-97.2,261.1-97.2c13.8,0,27.4,0.7,40.8,2.1h0.1c104,10.6,196.2,61.1,261,136
				c-70-60.6-161.2-97.2-261.1-97.2c-99.8,0-191,36.6-261,97.2C204.1,270.7,153.5,362.9,142.9,467L142.9,467z"/>
			<path class="st4" d="M142.9,467c-1.4,13.4-2.1,27-2.1,40.8c0,99.8,36.6,191.1,97.2,261.1c71.1,82.2,175.2,135,291.6,137.9
				C294.8,901.4,105.4,712.1,100,477.2c0-1.7-0.1-3.4-0.1-5.1s0-3.4,0-5.2c0-1.7,0-3.4,0-5.2c0-1.7,0.1-3.4,0.1-5.1
				c3-116.4,55.8-220.5,137.9-291.6c70-60.6,161.2-97.2,261.1-97.2c13.8,0,27.4,0.7,40.8,2.1h0.1c104,10.6,196.2,61.1,261,136
				c-70-60.6-161.2-97.2-261.1-97.2c-99.8,0-191,36.6-261,97.2C204.1,270.7,153.5,362.9,142.9,467L142.9,467z"/>
		</g>
		<g>
			<path class="st4" d="M979.9,477.3c-5.4,234.8-194.7,424.2-429.6,429.6c-1.7,0-3.4,0.1-5.1,0.1c-1.7,0-3.4,0-5.2,0
				c-1.7,0-3.4,0-5.2,0c-1.7,0-3.4-0.1-5.1-0.1c-116.4-3-220.5-55.8-291.6-137.9c-60.6-70-97.2-161.2-97.2-261.1
				c0-13.8,0.7-27.4,2.1-40.8V467c10.6-104,61.1-196.3,136.1-261.1c-60.6,70-97.3,161.3-97.3,261.1s36.7,191.1,97.3,261.1
				c64.8,74.9,157,125.4,261,135.9h0.1c13.4,1.4,27,2.1,40.8,2.1c99.8,0,191.1-36.6,261.1-97.2C924.1,697.8,976.9,593.8,979.9,477.3
				z"/>
			<path class="st4" d="M979.9,477.3c-5.4,234.8-194.7,424.2-429.6,429.6c-1.7,0-3.4,0.1-5.1,0.1c-1.7,0-3.4,0-5.2,0
				c-1.7,0-3.4,0-5.2,0c-1.7,0-3.4-0.1-5.1-0.1c-116.4-3-220.5-55.8-291.6-137.9c-60.6-70-97.2-161.2-97.2-261.1
				c0-13.8,0.7-27.4,2.1-40.8V467c10.6-104,61.1-196.3,136.1-261.1c-60.6,70-97.3,161.3-97.3,261.1s36.7,191.1,97.3,261.1
				c64.8,74.9,157,125.4,261,135.9h0.1c13.4,1.4,27,2.1,40.8,2.1c99.8,0,191.1-36.6,261.1-97.2C924.1,697.8,976.9,593.8,979.9,477.3
				z"/>
		</g>
		<g>
			<path class="st4" d="M980,467c0,1.7,0,3.4,0,5.2c0,1.7-0.1,3.4-0.1,5.1c-3,116.4-55.8,220.5-137.9,291.6
				c-70,60.6-161.2,97.2-261.1,97.2c-13.8,0-27.4-0.7-40.8-2.1H540c-104-10.5-196.2-61-261-135.9c70,60.5,161.2,97.2,261,97.2
				s191.1-36.6,261.1-97.2c74.9-64.8,125.4-157,136-261V467c1.4-13.4,2.1-27,2.1-40.8c0-99.8-36.6-191.1-97.2-261.1
				c-71.1-82.2-175.2-135-291.6-137.9C785.2,32.6,974.6,221.9,980,456.8c0,1.7,0.1,3.4,0.1,5.1C980,463.6,980,465.3,980,467z"/>
			<path class="st4" d="M980,467c0,1.7,0,3.4,0,5.2c0,1.7-0.1,3.4-0.1,5.1c-3,116.4-55.8,220.5-137.9,291.6
				c-70,60.6-161.2,97.2-261.1,97.2c-13.8,0-27.4-0.7-40.8-2.1H540c-104-10.5-196.2-61-261-135.9c70,60.5,161.2,97.2,261,97.2
				s191.1-36.6,261.1-97.2c74.9-64.8,125.4-157,136-261V467c1.4-13.4,2.1-27,2.1-40.8c0-99.8-36.6-191.1-97.2-261.1
				c-71.1-82.2-175.2-135-291.6-137.9C785.2,32.6,974.6,221.9,980,456.8c0,1.7,0.1,3.4,0.1,5.1C980,463.6,980,465.3,980,467z"/>
		</g>
		<g>
			<path class="st4" d="M939.1,426.1c0,13.8-0.7,27.4-2.1,40.8v0.1c-10.6,104-61.1,196.2-136,261c60.6-70,97.2-161.3,97.2-261.1
				S861.6,275.8,801,205.8c-64.8-74.9-157-125.4-261-136l0,0c-13.4-1.4-27-2.1-40.8-2.1c-99.8,0-191.1,36.6-261.1,97.2
				c-82.2,71.1-135,175.2-137.9,291.6c5.4-234.8,194.7-424.2,429.6-429.6c1.7,0,3.4-0.1,5.1-0.1c1.7,0,3.4,0,5.2,0
				c1.7,0,3.4,0,5.2,0c1.7,0,3.4,0.1,5.1,0.1c116.5,3,220.5,55.8,291.6,137.9C902.5,235.1,939.1,326.3,939.1,426.1z"/>
			<path class="st4" d="M939.1,426.1c0,13.8-0.7,27.4-2.1,40.8v0.1c-10.6,104-61.1,196.2-136,261c60.6-70,97.2-161.3,97.2-261.1
				S861.6,275.8,801,205.8c-64.8-74.9-157-125.4-261-136l0,0c-13.4-1.4-27-2.1-40.8-2.1c-99.8,0-191.1,36.6-261.1,97.2
				c-82.2,71.1-135,175.2-137.9,291.6c5.4-234.8,194.7-424.2,429.6-429.6c1.7,0,3.4-0.1,5.1-0.1c1.7,0,3.4,0,5.2,0
				c1.7,0,3.4,0,5.2,0c1.7,0,3.4,0.1,5.1,0.1c116.5,3,220.5,55.8,291.6,137.9C902.5,235.1,939.1,326.3,939.1,426.1z"/>
		</g>
	</g>
</g>
<g>
	<path class="st5" d="M264.6,612.2v46.1h-13.3v-46.1h-15.8V602h45.5l-1.4,10.2H264.6z"/>
	<path class="st5" d="M331.7,611.5V625h19.5v9.3h-19.5v14.4h23.5v9.5h-36.8v-56.3h36.8l-1.3,9.5L331.7,611.5L331.7,611.5z"/>
	<path class="st5" d="M434,641.8c0,3.5-0.9,6.6-2.7,9.3c-1.8,2.7-4.4,4.8-7.9,6.3c-3.4,1.5-7.5,2.3-12.3,2.3
		c-5.3,0-9.7-0.8-13.3-2.3c-3.6-1.6-6.6-3.5-8.9-5.8l6.7-7.5c2.1,1.8,4.4,3.2,6.9,4.2s5.3,1.5,8.3,1.5c1.9,0,3.5-0.3,4.9-0.8
		s2.5-1.3,3.3-2.4c0.8-1,1.2-2.3,1.2-3.7s-0.3-2.5-0.9-3.5c-0.6-0.9-1.7-1.8-3.1-2.6c-1.5-0.8-3.5-1.5-6.1-2.3
		c-4.4-1.4-7.9-2.8-10.6-4.5s-4.6-3.5-5.8-5.6c-1.2-2.1-1.8-4.6-1.8-7.5c0-3.4,1-6.4,2.9-8.8c1.9-2.4,4.5-4.3,7.7-5.6
		s6.8-1.9,10.6-1.9c4.4,0,8.2,0.6,11.5,1.9c3.3,1.3,6.2,3.1,8.6,5.4l-6.3,7.2c-1.9-1.6-3.9-2.8-6.1-3.6s-4.4-1.2-6.7-1.2
		c-1.7,0-3.2,0.2-4.4,0.6c-1.3,0.4-2.3,1-3,1.8s-1.1,1.8-1.1,3s0.3,2.2,1,3s1.9,1.6,3.5,2.3c1.7,0.7,4,1.5,7,2.5
		c3.5,1.1,6.6,2.4,9.1,3.9s4.5,3.4,5.8,5.7C433.4,635.5,434,638.3,434,641.8z"/>
	<path class="st5" d="M496,612.2v46.1h-13.3v-46.1h-15.8V602h45.5l-1.4,10.2H496z"/>
	<path class="st5" d="M567.6,658.2v-56.3h13.3v45.7h24.4l-1.4,10.5L567.6,658.2L567.6,658.2z"/>
	<path class="st5" d="M669.7,646.1h-16.5l-3,12.1h-13.9l17.2-56.3h16.2l17.2,56.3h-14.2L669.7,646.1z M655.3,636.4h12.2l-6.1-24.9
		L655.3,636.4z"/>
	<path class="st5" d="M760.7,641.8c0,3.2-0.6,5.9-1.9,8.1c-1.2,2.1-2.9,3.8-5.1,5c-2.2,1.2-4.6,2.1-7.4,2.6
		c-2.8,0.5-5.7,0.8-8.7,0.8h-18.7V602h17.8c2.9,0,5.6,0.2,8.2,0.7s4.9,1.3,6.9,2.4c2,1.1,3.6,2.6,4.7,4.4c1.1,1.9,1.7,4.1,1.7,6.9
		c0,2.2-0.5,4.2-1.4,5.8s-2.2,3-3.8,4s-3.3,1.8-5.1,2.3c2,0.3,4,1,5.9,1.9s3.6,2.3,4.9,4.2C760,636.3,760.7,638.8,760.7,641.8z
		 M744.8,617.7c0-2.2-0.7-3.8-2.1-4.8s-3.6-1.5-6.5-1.5h-4.1v13h4.5c2.9,0,4.9-0.5,6.2-1.6C744.2,621.8,744.8,620.1,744.8,617.7z
		 M746.9,641.2c0-2-0.4-3.5-1.2-4.7c-0.8-1.1-1.9-2-3.2-2.5c-1.4-0.5-3-0.7-4.9-0.7H732v15.2h4.9c1.3,0,2.5-0.1,3.7-0.3
		s2.2-0.5,3.2-1.1c0.9-0.5,1.7-1.3,2.2-2.2C746.7,644,746.9,642.8,746.9,641.2z"/>
	<path class="st5" d="M837.5,641.8c0,3.5-0.9,6.6-2.7,9.3s-4.4,4.8-7.9,6.3c-3.4,1.5-7.5,2.3-12.3,2.3c-5.3,0-9.7-0.8-13.3-2.3
		c-3.6-1.6-6.6-3.5-8.9-5.8l6.7-7.5c2.1,1.8,4.4,3.2,6.9,4.2s5.3,1.5,8.3,1.5c1.9,0,3.5-0.3,4.9-0.8s2.5-1.3,3.3-2.4
		c0.8-1,1.2-2.3,1.2-3.7s-0.3-2.5-0.9-3.5c-0.6-0.9-1.7-1.8-3.1-2.6c-1.5-0.8-3.5-1.5-6.1-2.3c-4.4-1.4-7.9-2.8-10.6-4.5
		s-4.6-3.5-5.8-5.6s-1.8-4.6-1.8-7.5c0-3.4,1-6.4,2.9-8.8c1.9-2.4,4.5-4.3,7.7-5.6s6.8-1.9,10.6-1.9c4.4,0,8.2,0.6,11.5,1.9
		c3.3,1.3,6.2,3.1,8.6,5.4l-6.3,7.2c-1.9-1.6-3.9-2.8-6.1-3.6c-2.2-0.8-4.4-1.2-6.7-1.2c-1.7,0-3.2,0.2-4.4,0.6
		c-1.3,0.4-2.3,1-3,1.8s-1.1,1.8-1.1,3s0.3,2.2,1,3s1.9,1.6,3.5,2.3c1.7,0.7,4,1.5,7,2.5c3.5,1.1,6.6,2.4,9.1,3.9s4.5,3.4,5.8,5.7
		C836.9,635.5,837.5,638.3,837.5,641.8z"/>
</g>
<g>
	<path class="st6" d="M595.5,436.1c-14.6,67.8-65.8,117.3-156.8,117.3c-115.3,0-169.8-81.6-169.8-185.1c0-99.7,56.3-189,173.6-189
		c96.8,0,143.8,56.8,152.7,117.6h-78.6c-7.6-28-27.1-56-76.5-56c-64.9,0-89.9,58.3-89.9,124.5c0,61.5,21.7,126.2,92,126.2
		c51.3,0,67.5-34.4,74.4-55.6L595.5,436.1L595.5,436.1z"/>
	<path class="st6" d="M734.7,184.6v363.7h-78.6V184.6H734.7z"/>
</g>
<path class="st6" d="M807.5,3.7h-535L5,467l267.5,463.3h535L1075,467L807.5,3.7z M540,913.5C293.4,913.5,93.5,713.6,93.5,467
	S293.4,20.5,540,20.5S986.5,220.4,986.5,467S786.6,913.5,540,913.5z"/>
</svg>
